<svg width="106" height="30" viewBox="0 0 106 30" fill="none" xmlns="http://www.w3.org/2000/svg">
<path d="M50.5176 18.101V28.7386H53.9738V17.4098C53.9738 15.9761 53.6666 14.7088 53.0522 13.6079C52.4377 12.507 51.5929 11.6494 50.5176 11.0349C49.4679 10.4205 48.2518 10.1133 46.8693 10.1133C45.4868 10.1133 44.2451 10.4333 43.1443 11.0733C42.315 11.5362 41.6238 12.1297 41.0705 12.8541V1.31903H37.6143V28.7386H41.0705V18.101C41.0705 17.1794 41.2753 16.3601 41.6849 15.6433C42.0946 14.9264 42.6578 14.3632 43.3747 13.9535C44.0915 13.5439 44.9108 13.3391 45.8324 13.3391C47.2149 13.3391 48.3414 13.7871 49.2119 14.6832C50.0823 15.5792 50.5176 16.7185 50.5176 18.101Z" fill="#787882"/>
<path d="M60.0358 28.1241C61.239 28.7898 62.5959 29.1226 64.1064 29.1226C65.6426 29.1226 66.9866 28.7898 68.1387 28.1241C69.3164 27.4329 70.2381 26.4856 70.9037 25.2823C71.5694 24.0791 71.9022 22.6838 71.9022 21.0964V10.4973H68.446V20.9428C68.446 22.4533 68.0619 23.6438 67.2939 24.5143C66.5258 25.3591 65.4633 25.7816 64.1064 25.7816C63.2104 25.7816 62.4295 25.5896 61.7639 25.2055C61.0982 24.8215 60.5862 24.2711 60.2278 23.5542C59.8949 22.8118 59.7285 21.9413 59.7285 20.9428V10.4973H56.2723V21.0964C56.2723 22.6838 56.6051 24.0791 57.2708 25.2823C57.9364 26.4856 58.8581 27.4329 60.0358 28.1241Z" fill="#787882"/>
<path fill-rule="evenodd" clip-rule="evenodd" d="M83.063 29.1226C81.2453 29.1226 79.6067 28.713 78.1474 27.8937C76.6881 27.0489 75.5361 25.9096 74.6912 24.4759C73.8463 23.0422 73.4239 21.4165 73.4239 19.5987C73.4239 17.8066 73.8335 16.1937 74.6528 14.76C75.4977 13.3263 76.6241 12.1998 78.0322 11.3805C79.4659 10.5357 81.0661 10.1133 82.8326 10.1133C84.5223 10.1133 86.0072 10.4973 87.2873 11.2653C88.593 12.0334 89.6043 13.0959 90.3211 14.4528C91.0636 15.8097 91.4348 17.3458 91.4348 19.0611C91.4348 19.3171 91.422 19.5987 91.3964 19.906C91.3708 20.1876 91.3196 20.5204 91.2428 20.9044H76.9574C77.079 21.6148 77.2965 22.2676 77.6098 22.863C78.1218 23.8102 78.8515 24.5527 79.7988 25.0903C80.746 25.6024 81.8341 25.8584 83.063 25.8584C84.0871 25.8584 85.0215 25.6792 85.8664 25.3207C86.7369 24.9623 87.4793 24.4247 88.0938 23.7078L90.3211 25.9736C89.4507 26.9977 88.3754 27.7785 87.0953 28.3162C85.8408 28.8538 84.4967 29.1226 83.063 29.1226ZM77.5714 16.2193C77.2844 16.763 77.0821 17.3647 76.9644 18.0242H88.0662C87.9718 17.2692 87.7762 16.6036 87.4793 16.0273C87.0441 15.1568 86.4296 14.4912 85.636 14.0303C84.8423 13.5439 83.8823 13.3007 82.7558 13.3007C81.5781 13.3007 80.5412 13.5567 79.6452 14.0687C78.7491 14.5808 78.0578 15.2976 77.5714 16.2193Z" fill="#787882"/>
<path d="M93.6673 27.5865C94.4353 28.0729 95.2674 28.457 96.1634 28.7386C97.0851 28.9946 98.058 29.1226 99.082 29.1226C101.13 29.1226 102.756 28.6234 103.959 27.6249C105.188 26.6264 105.803 25.2695 105.803 23.5542C105.803 22.4277 105.559 21.5189 105.073 20.8276C104.612 20.1364 104.01 19.5859 103.268 19.1763C102.525 18.7667 101.745 18.4467 100.925 18.2162C100.106 17.9602 99.3125 17.717 98.5444 17.4866C97.8019 17.2562 97.2003 16.9745 96.7395 16.6417C96.2786 16.3089 96.0482 15.8353 96.0482 15.2208C96.0482 14.6064 96.3042 14.1327 96.8163 13.7999C97.3539 13.4415 98.122 13.2623 99.1204 13.2623C100.068 13.2623 100.913 13.4415 101.655 13.7999C102.423 14.1583 103.063 14.6704 103.575 15.336L105.803 13.1087C105.086 12.1102 104.164 11.3677 103.038 10.8813C101.937 10.3693 100.669 10.1133 99.2356 10.1133C97.8788 10.1133 96.7139 10.3309 95.741 10.7661C94.7937 11.2013 94.0513 11.8286 93.5136 12.6478C92.976 13.4415 92.7072 14.3888 92.7072 15.4896C92.7072 16.5905 92.9376 17.4738 93.3984 18.1394C93.8849 18.8051 94.4993 19.3299 95.2418 19.7139C95.9842 20.098 96.7651 20.418 97.5843 20.674C98.4292 20.9044 99.2228 21.1476 99.9653 21.4037C100.708 21.6341 101.309 21.9413 101.77 22.3253C102.257 22.6838 102.5 23.1958 102.5 23.8614C102.5 24.5271 102.205 25.0519 101.617 25.436C101.028 25.7944 100.196 25.9736 99.1204 25.9736C98.0452 25.9736 97.0723 25.7816 96.2018 25.3975C95.3314 24.9879 94.5633 24.3735 93.8977 23.5542L91.6703 25.7816C92.2335 26.4728 92.8992 27.0745 93.6673 27.5865Z" fill="#787882"/>
<path d="M102.568 4.37261V5.05318H101.748V7.12378H100.971V5.05318H100.151V4.37261H102.568Z" fill="#787882"/>
<path d="M105.761 4.33136V7.13615H104.983V5.775L104.413 6.41433H104.181L103.611 5.775V7.13615H102.833V4.33136H103.108L104.297 5.52752L105.486 4.33136H105.761Z" fill="#787882"/>
<path d="M4.46754 8.84912C5.54384 12.3001 9.21395 14.2252 12.665 13.1489C16.116 12.0726 24.2897 6.45369 23.2134 3.00268C22.1371 -0.448328 12.2183 -0.424601 8.76734 0.651698C5.31632 1.728 3.39124 5.39811 4.46754 8.84912Z" fill="#787882"/>
<path d="M2.38343 27.7722C4.409 29.7977 7.69274 29.7977 9.71831 27.7722C11.7439 25.7466 15.4111 18.7952 13.3859 16.7697C11.3604 14.7443 4.409 18.4117 2.38343 20.4371C0.357866 22.4627 0.357866 25.7466 2.38343 27.7722Z" fill="#787882"/>
<path d="M21.764 29.7638C25.2559 30.6993 28.845 28.6272 29.7807 25.1354C30.7161 21.6436 30.3383 11.7322 26.8464 10.7964C23.3546 9.8609 18.0716 18.2554 17.1358 21.7473C16.2001 25.2389 18.2722 28.828 21.764 29.7638Z" fill="#787882"/>
</svg>
