<svg width="113" height="32" viewBox="0 0 113 32" fill="none" xmlns="http://www.w3.org/2000/svg">
<path d="M63.4903 23.9889V5.82782H66.7809V23.9889H63.4903Z" fill="#787882"/>
<path d="M35.6357 6.3302L42.5937 23.9889H45.3066L52.3399 6.3302H48.6977L43.9912 18.7283L39.3282 6.3302H35.6357Z" fill="#787882"/>
<path fill-rule="evenodd" clip-rule="evenodd" d="M52.8313 23.4112C53.8193 23.9638 54.9246 24.2401 56.147 24.2401C57.3695 24.2401 58.4664 23.9638 59.4376 23.4112C60.4257 22.8418 61.2044 22.0799 61.7737 21.1253C62.3431 20.1541 62.6278 19.074 62.6278 17.885C62.6278 16.696 62.3431 15.6326 61.7737 14.6949C61.2044 13.7403 60.4257 12.9868 59.4376 12.4341C58.4664 11.8648 57.3611 11.5801 56.1219 11.5801C54.9162 11.5801 53.8193 11.8648 52.8313 12.4341C51.8433 12.9868 51.0646 13.7403 50.4953 14.6949C49.9259 15.6326 49.6412 16.696 49.6412 17.885C49.6412 19.074 49.9259 20.1541 50.4953 21.1253C51.0814 22.0799 51.8601 22.8418 52.8313 23.4112ZM57.7547 20.7737C57.2858 21.0416 56.7415 21.1756 56.1219 21.1756C55.5191 21.1756 54.9832 21.0416 54.5143 20.7737C54.0454 20.489 53.677 20.1038 53.4091 19.6182C53.1411 19.1158 53.0072 18.5464 53.0072 17.9101C53.0072 17.2738 53.1411 16.7128 53.4091 16.2271C53.677 15.7415 54.0454 15.3647 54.5143 15.0968C54.9832 14.8121 55.5191 14.6697 56.1219 14.6697C56.7415 14.6697 57.2858 14.8121 57.7547 15.0968C58.2236 15.3647 58.592 15.7415 58.8599 16.2271C59.1278 16.7128 59.2618 17.2738 59.2618 17.9101C59.2618 18.5464 59.1278 19.1158 58.8599 19.6182C58.6087 20.1038 58.2403 20.489 57.7547 20.7737Z" fill="#787882"/>
<path d="M70.7514 23.5619C71.5887 24.014 72.5433 24.2401 73.615 24.2401C74.6868 24.2401 75.6329 24.0224 76.4535 23.587C77.2908 23.1349 77.9355 22.5069 78.3876 21.7031C78.8565 20.8993 79.091 19.9615 79.091 18.8897V11.8564H75.8004V18.8144C75.8004 19.568 75.6078 20.1541 75.2226 20.5727C74.8375 20.9914 74.3016 21.2007 73.615 21.2007C73.1629 21.2007 72.7693 21.1086 72.4344 20.9244C72.0995 20.7402 71.8483 20.4722 71.6808 20.1206C71.5134 19.7522 71.4297 19.3168 71.4297 18.8144V11.8564H68.1139V18.8897C68.1139 19.9447 68.3484 20.8742 68.8173 21.678C69.2862 22.4818 69.9309 23.1098 70.7514 23.5619Z" fill="#787882"/>
<path d="M80.4554 23.9889V11.8564H83.7461V12.909C84.0404 12.6217 84.3753 12.3796 84.7508 12.1829C85.4541 11.7978 86.2496 11.6052 87.1371 11.6052C87.9744 11.6052 88.7364 11.7978 89.423 12.1829C89.9983 12.4917 90.4738 12.9122 90.8492 13.4443C91.2551 12.9264 91.7509 12.5143 92.3368 12.2081C93.0736 11.8062 93.8942 11.6052 94.7985 11.6052C95.7027 11.6052 96.5149 11.7978 97.235 12.1829C97.9551 12.5514 98.5244 13.0872 98.9431 13.7906C99.3618 14.4939 99.5711 15.3312 99.5711 16.3025V23.9889H96.2805V16.83C96.2805 16.1266 96.0544 15.5824 95.6023 15.1972C95.1669 14.7953 94.6226 14.5944 93.9695 14.5944C93.5509 14.5944 93.1573 14.6865 92.7889 14.8707C92.4373 15.0382 92.1609 15.2893 91.96 15.6243C91.759 15.9592 91.6586 16.3611 91.6586 16.83V23.9889H88.368V16.83C88.368 16.1266 88.1419 15.5824 87.6897 15.1972C87.2543 14.7953 86.7101 14.5944 86.057 14.5944C85.6216 14.5944 85.2281 14.6865 84.8764 14.8707C84.5247 15.0382 84.2484 15.2893 84.0475 15.6243C83.8465 15.9592 83.7461 16.3611 83.7461 16.83V23.9889H80.4554Z" fill="#787882"/>
<path fill-rule="evenodd" clip-rule="evenodd" d="M103.394 23.4363C104.382 23.9722 105.512 24.2401 106.785 24.2401C107.773 24.2401 108.686 24.0643 109.523 23.7126C110.377 23.3609 111.097 22.8418 111.683 22.1552L109.749 20.2211C109.381 20.6397 108.945 20.9579 108.443 21.1756C107.94 21.3765 107.379 21.477 106.76 21.477C106.073 21.477 105.47 21.3347 104.951 21.05C104.432 20.7486 104.03 20.3299 103.746 19.794C103.638 19.5732 103.553 19.3377 103.489 19.0874L112.361 19.0656C112.428 18.7809 112.47 18.5297 112.487 18.312C112.52 18.0776 112.537 17.8515 112.537 17.6338C112.537 16.4783 112.278 15.4484 111.759 14.5441C111.256 13.6231 110.553 12.903 109.649 12.3839C108.761 11.848 107.731 11.5801 106.559 11.5801C105.37 11.5801 104.29 11.8648 103.319 12.4341C102.347 12.9868 101.577 13.7403 101.008 14.6949C100.455 15.6326 100.179 16.7044 100.179 17.9101C100.179 19.1326 100.463 20.2211 101.033 21.1756C101.619 22.1301 102.406 22.8837 103.394 23.4363ZM103.491 16.6252C103.55 16.4031 103.627 16.1951 103.72 16.001C103.988 15.4652 104.365 15.0549 104.851 14.7702C105.336 14.4688 105.906 14.3181 106.559 14.3181C107.178 14.3181 107.698 14.452 108.116 14.72C108.552 14.9712 108.878 15.3396 109.096 15.8252C109.209 16.059 109.298 16.32 109.365 16.6082L103.491 16.6252Z" fill="#787882"/>
<path fill-rule="evenodd" clip-rule="evenodd" d="M15.4118 31.2839C23.8529 31.2839 30.6957 24.4411 30.6957 16C30.6957 7.55896 23.8529 0.716125 15.4118 0.716125C6.97077 0.716125 0.12793 7.55896 0.12793 16C0.12793 24.4411 6.97077 31.2839 15.4118 31.2839ZM21.7403 6.64513C21.9218 6.79854 22.0262 7.02404 22.0262 7.26161L22.0258 10.3323L22.0262 10.5343L22.0258 10.5585V20.8374C22.0258 22.6226 20.5787 24.0697 18.7936 24.0697C17.0084 24.0697 15.5613 22.6226 15.5613 20.8374C15.5613 19.0523 17.0084 17.605 18.7936 17.605C19.3824 17.605 19.9342 17.7625 20.4097 18.0375V11.4882L12.3287 12.8353V22.4535C12.3287 24.2387 10.8817 25.6858 9.0965 25.6858C7.31135 25.6858 5.86426 24.2387 5.86426 22.4535C5.86426 20.6684 7.31135 19.2211 9.0965 19.2211C9.68528 19.2211 10.2375 19.3786 10.7126 19.6537L10.713 12.1505L10.7126 11.9484L10.713 11.9242V8.87773C10.713 8.48284 10.9985 8.14566 11.3884 8.08068L21.0851 6.46456C21.3195 6.42549 21.5592 6.49154 21.7403 6.64513Z" fill="#787882"/>
</svg>
